<?xml version="1.0" encoding="utf-8"?>
<!-- Generator: Adobe Illustrator 16.0.0, SVG Export Plug-In . SVG Version: 6.00 Build 0)  -->
<!DOCTYPE svg PUBLIC "-//W3C//DTD SVG 1.1//EN" "http://www.w3.org/Graphics/SVG/1.1/DTD/svg11.dtd">
<svg version="1.1" id="Vrstva_1" xmlns="http://www.w3.org/2000/svg" xmlns:xlink="http://www.w3.org/1999/xlink" x="0px" y="0px"
	 width="595.28px" height="841.89px" viewBox="0 0 595.28 841.89" enable-background="new 0 0 595.28 841.89" xml:space="preserve">
<path fill="#F9B03D" d="M298.989,458c-20.402,0-37-16.598-37-37c0-20.402,16.598-37,37-37c14.64,0,27.32,8.548,33.315,20.914h4.393
	C330.432,390.28,315.89,380,298.989,380c-22.607,0-41,18.393-41,41c0,22.607,18.393,41,41,41c16.9,0,31.442-10.28,37.708-24.914
	h-4.393C326.31,449.453,313.629,458,298.989,458"/>
<path fill="#F39323" d="M298.99,395.34c-14.25,0-25.83,11.59-25.83,25.83c0,6.36,2.34,12.44,6.52,17.14
	c0.75,0.841,1.55,1.65,2.42,2.4l0.01,0.01c0.91,0.79,1.89,1.49,2.89,2.13c4.15,2.681,9,4.15,13.99,4.15
	c4.75,0,9.401-1.34,13.43-3.79c1.02-0.62,2.01-1.3,2.939-2.06c0.891-0.73,1.721-1.521,2.5-2.351c4.451-4.76,6.961-11.01,6.961-17.63
	C324.82,406.93,313.23,395.34,298.99,395.34 M298.99,440c-3.37,0-6.65-0.9-9.53-2.59l9.46-11.53l9.17,11.78
	C305.32,439.18,302.18,440,298.99,440 M317.8,421.83c-0.14,4.2-1.67,8.18-4.31,11.36l-14.43-18.521l-14.871,18.14
	c-2.46-3.14-3.89-7-4.01-11.02c-0.02-0.21-0.02-0.41-0.02-0.62c0-0.32,0.01-0.65,0.02-0.97c0.51-9.93,8.74-17.86,18.81-17.86
	c10.06,0,18.3,7.93,18.81,17.86c0.011,0.32,0.021,0.65,0.021,0.97C317.82,421.39,317.82,421.61,317.8,421.83"/>
</svg>
