<?xml version="1.0" encoding="utf-8"?>
<!-- Generator: Adobe Illustrator 16.0.0, SVG Export Plug-In . SVG Version: 6.00 Build 0)  -->
<!DOCTYPE svg PUBLIC "-//W3C//DTD SVG 1.1//EN" "http://www.w3.org/Graphics/SVG/1.1/DTD/svg11.dtd">
<svg version="1.1" id="Vrstva_1" xmlns="http://www.w3.org/2000/svg" xmlns:xlink="http://www.w3.org/1999/xlink" x="0px" y="0px"
	 width="960px" height="560px" viewBox="0 0 960 560" enable-background="new 0 0 960 560" xml:space="preserve">
<g>
	<defs>
		<rect id="SVGID_1_" width="960" height="560"/>
	</defs>
	<clipPath id="SVGID_2_">
		<use xlink:href="#SVGID_1_"  overflow="visible"/>
	</clipPath>
	<path clip-path="url(#SVGID_2_)" fill="#FBB03B" d="M288.989,317c-20.402,0-37-16.598-37-37c0-20.402,16.598-37,37-37
		c14.64,0,27.32,8.548,33.315,20.914h4.393C320.432,249.28,305.89,239,288.989,239c-22.607,0-41,18.393-41,41
		c0,22.607,18.393,41,41,41c16.9,0,31.442-10.28,37.708-24.914h-4.393C316.31,308.453,303.629,317,288.989,317"/>
	<path clip-path="url(#SVGID_2_)" fill="#F7931E" d="M288.99,254.34c-14.25,0-25.83,11.59-25.83,25.83c0,6.36,2.34,12.44,6.52,17.14
		c0.75,0.841,1.55,1.65,2.42,2.4l0.01,0.01c0.91,0.79,1.89,1.49,2.89,2.13c4.15,2.681,9,4.15,13.99,4.15c4.75,0,9.4-1.34,13.43-3.79
		c1.02-0.62,2.01-1.3,2.94-2.06c0.89-0.73,1.72-1.521,2.5-2.351c4.45-4.76,6.96-11.01,6.96-17.63
		C314.82,265.93,303.23,254.34,288.99,254.34 M288.99,299c-3.37,0-6.65-0.9-9.53-2.59l9.46-11.53l9.17,11.78
		C295.32,298.18,292.18,299,288.99,299 M307.8,280.83c-0.14,4.2-1.67,8.18-4.31,11.36l-14.43-18.521l-14.87,18.14
		c-2.46-3.14-3.89-7-4.01-11.02c-0.02-0.21-0.02-0.41-0.02-0.62c0-0.32,0.01-0.65,0.02-0.97c0.51-9.93,8.74-17.86,18.81-17.86
		c10.06,0,18.3,7.93,18.81,17.86c0.01,0.32,0.02,0.65,0.02,0.97C307.82,280.39,307.82,280.61,307.8,280.83"/>
	<path clip-path="url(#SVGID_2_)" fill="#666666" d="M382.725,267.453c1.811,0.768,3.354,1.802,4.632,3.103l-3.709,4.394
		c-0.82-1.008-1.799-1.808-2.936-2.399c-1.136-0.592-2.273-0.888-3.41-0.888c-1.324,0-2.519,0.319-3.586,0.958
		c-1.066,0.639-1.904,1.515-2.513,2.628c-0.61,1.113-0.915,2.355-0.915,3.726c0,1.395,0.305,2.654,0.915,3.779
		c0.609,1.125,1.45,2.013,2.522,2.663c1.072,0.65,2.265,0.976,3.577,0.976c1.055,0,2.153-0.264,3.296-0.791s2.159-1.248,3.05-2.162
		l3.744,3.955c-1.371,1.395-2.985,2.511-4.843,3.349c-1.857,0.838-3.712,1.257-5.563,1.257c-2.496,0-4.752-0.563-6.768-1.688
		c-2.015-1.125-3.6-2.678-4.755-4.658c-1.154-1.98-1.731-4.184-1.731-6.609c0-2.403,0.589-4.568,1.766-6.495
		c1.178-1.928,2.792-3.452,4.843-4.571c2.051-1.119,4.336-1.678,6.856-1.678C379.072,266.302,380.914,266.685,382.725,267.453"/>
	<path clip-path="url(#SVGID_2_)" fill="#666666" d="M427.18,283.69c1.49-0.75,2.63-1.811,3.41-3.181c0.77-1.36,1.16-3.01,1.16-4.93
		c0-2.81-0.91-4.98-2.73-6.5s-4.4-2.29-7.74-2.29h-11.27V292h6.42v-7.08h5.04l3.75,7.08h7.26L427.18,283.69z M424.52,278.83
		c-0.77,0.69-1.85,1.04-3.24,1.04h-4.85v-8.03h4.85c1.39,0,2.47,0.33,3.24,1s1.15,1.65,1.15,2.95
		C425.67,277.12,425.29,278.13,424.52,278.83"/>
	<path clip-path="url(#SVGID_2_)" fill="#666666" d="M471.39,266.79h-6.59L453.94,292h6.59l1.83-4.64h11.02l1.79,4.64h6.84
		L471.39,266.79z M464.22,282.49l3.68-9.32l3.6,9.32H464.22z"/>
	<path clip-path="url(#SVGID_2_)" fill="#666666" d="M601.39,266.79h-6.59L583.939,292h6.591l1.83-4.64h11.02l1.79,4.64h6.84
		L601.39,266.79z M594.22,282.49l3.681-9.32l3.6,9.32H594.22z"/>
	<polygon clip-path="url(#SVGID_2_)" fill="#666666" points="655.368,292 655.333,275.618 649.286,289.486 645.102,289.486 
		639.056,275.618 639.056,292 633.325,292 633.325,266.758 640.355,266.758 647.194,281.77 654.032,266.758 661.011,266.758 
		661.011,292 	"/>
	<path clip-path="url(#SVGID_2_)" fill="#666666" d="M701.39,266.79h-6.59L683.939,292h6.591l1.83-4.64h11.02l1.79,4.64h6.84
		L701.39,266.79z M694.22,282.49l3.681-9.32l3.6,9.32H694.22z"/>
	<polygon clip-path="url(#SVGID_2_)" fill="#666666" points="523,272.989 523,267 510,267 504.01,267 504,267 504,272.989 
		504.01,272.989 504.01,292 510,292 510,282 521,282 521,277.011 510,277.011 510,272.989 	"/>
	<rect x="551" y="267" clip-path="url(#SVGID_2_)" fill="#666666" width="6" height="25"/>
	<rect x="543" y="266" clip-path="url(#SVGID_2_)" fill="#666666" width="22" height="6"/>
</g>
</svg>
