  0
SECTION
  2
HEADER
  9
$ACADVER
  1
AC1014
  9
$HANDSEED
  5
FFFF
  9
$MEASUREMENT
 70
     1
  0
ENDSEC
  0
SECTION
  2
TABLES
  0
TABLE
  2
VPORT
  5
8
330
0
100
AcDbSymbolTable
 70
     4
  0
VPORT
  5
2E
330
8
100
AcDbSymbolTableRecord
100
AcDbViewportTableRecord
  2
*ACTIVE
 70
     0
 10
0.0
 20
0.0
 11
1.0
 21
1.0
 12
210.0
 22
148.5
 13
0.0
 23
0.0
 14
10.0
 24
10.0
 15
10.0
 25
10.0
 16
0.0
 26
0.0
 36
1.0
 17
0.0
 27
0.0
 37
0.0
 40
341.0
 41
1.24
 42
50.0
 43
0.0
 44
0.0
 50
0.0
 51
0.0
 71
     0
 72
   100
 73
     1
 74
     3
 75
     0
 76
     0
 77
     0
 78
     0
  0
ENDTAB
  0
TABLE
  2
LTYPE
  5
5
330
0
100
AcDbSymbolTable
 70
     1
  0
LTYPE
  5
14
330
5
100
AcDbSymbolTableRecord
100
AcDbLinetypeTableRecord
  2
BYBLOCK
 70
     0
  3

 72
    65
 73
     0
 40
0.0
  0
LTYPE
  5
15
330
5
100
AcDbSymbolTableRecord
100
AcDbLinetypeTableRecord
  2
BYLAYER
 70
     0
  3

 72
    65
 73
     0
 40
0.0
  0
LTYPE
  5
16
330
5
100
AcDbSymbolTableRecord
100
AcDbLinetypeTableRecord
  2
CONTINUOUS
 70
     0
  3
Solid line
 72
    65
 73
     0
 40
0.0
  0
ENDTAB
  0
TABLE
  2
LAYER
  5
2
100
AcDbSymbolTable
 70
1
  0
LAYER
  5
50
100
AcDbSymbolTableRecord
100
AcDbLayerTableRecord
  2
0
 70
0
  6
CONTINUOUS
  0
ENDTAB
  0
TABLE
  2
STYLE
  5
3
330
0
100
AcDbSymbolTable
 70
     1
  0
STYLE
  5
11
330
3
100
AcDbSymbolTableRecord
100
AcDbTextStyleTableRecord
  2
STANDARD
 70
     0
 40
0.0
 41
1.0
 50
0.0
 71
     0
 42
2.5
  3
txt
  4

  0
ENDTAB
  0
TABLE
  2
VIEW
  5
6
330
0
100
AcDbSymbolTable
 70
     0
  0
ENDTAB
  0
TABLE
  2
UCS
  5
7
330
0
100
AcDbSymbolTable
 70
     0
  0
ENDTAB
  0
TABLE
  2
APPID
  5
9
330
0
100
AcDbSymbolTable
 70
     2
  0
APPID
  5
12
330
9
100
AcDbSymbolTableRecord
100
AcDbRegAppTableRecord
  2
ACAD
 70
     0
  0
ENDTAB
  0
TABLE
  2
DIMSTYLE
  5
A
330
0
100
AcDbSymbolTable
 70
     1
  0
DIMSTYLE
105
27
330
A
100
AcDbSymbolTableRecord
100
AcDbDimStyleTableRecord
  2
ISO-25
 70
     0
  3

  4

  5

  6

  7

 40
1.0
 41
2.5
 42
0.625
 43
3.75
 44
1.25
 45
0.0
 46
0.0
 47
0.0
 48
0.0
140
2.5
141
2.5
142
0.0
143
0.03937007874016
144
1.0
145
0.0
146
1.0
147
0.625
 71
     0
 72
     0
 73
     0
 74
     0
 75
     0
 76
     0
 77
     1
 78
     8
170
     0
171
     3
172
     1
173
     0
174
     0
175
     0
176
     0
177
     0
178
     0
270
     2
271
     2
272
     2
273
     2
274
     3
340
11
275
     0
280
     0
281
     0
282
     0
283
     0
284
     8
285
     0
286
     0
287
     3
288
     0
  0
ENDTAB
  0
TABLE
  2
BLOCK_RECORD
  5
1
330
0
100
AcDbSymbolTable
 70
     1
  0
BLOCK_RECORD
  5
1F
330
1
100
AcDbSymbolTableRecord
100
AcDbBlockTableRecord
  2
*MODEL_SPACE
  0
BLOCK_RECORD
  5
1B
330
1
100
AcDbSymbolTableRecord
100
AcDbBlockTableRecord
  2
*PAPER_SPACE
  0
ENDTAB
  0
ENDSEC
  0
SECTION
  2
BLOCKS
  0
BLOCK
  5
20
330
1F
100
AcDbEntity
  8
0
100
AcDbBlockBegin
  2
*MODEL_SPACE
 70
     0
 10
0.0
 20
0.0
 30
0.0
  3
*MODEL_SPACE
  1

  0
ENDBLK
  5
21
330
1F
100
AcDbEntity
  8
0
100
AcDbBlockEnd
  0
BLOCK
  5
1C
330
1B
100
AcDbEntity
 67
     1
  8
0
100
AcDbBlockBegin
  2
*PAPER_SPACE
  1

  0
ENDBLK
  5
1D
330
1B
100
AcDbEntity
 67
     1
  8
0
100
AcDbBlockEnd
  0
ENDSEC
  0
SECTION
  2
ENTITIES
  0
SPLINE
  5
100
100
AcDbEntity
  8
0
 62
7
100
AcDbSpline
 70
8
 71
3
 72
8
 73
4
 74
0
 40
0
 40
0
 40
0
 40
0
 40
1
 40
1
 40
1
 40
1
 10
216.741750
 20
182.250000
 30
0.0
 10
201.440250
 20
182.250000
 30
0.0
 10
188.991750
 20
194.698500
 30
0.0
 10
188.991750
 20
210.000000
 30
0.0
  0
SPLINE
  5
101
100
AcDbEntity
  8
0
 62
7
100
AcDbSpline
 70
8
 71
3
 72
8
 73
4
 74
0
 40
0
 40
0
 40
0
 40
0
 40
1
 40
1
 40
1
 40
1
 10
188.991750
 20
210.000000
 30
0.0
 10
188.991750
 20
225.301500
 30
0.0
 10
201.440250
 20
237.750000
 30
0.0
 10
216.741750
 20
237.750000
 30
0.0
  0
SPLINE
  5
102
100
AcDbEntity
  8
0
 62
7
100
AcDbSpline
 70
8
 71
3
 72
8
 73
4
 74
0
 40
0
 40
0
 40
0
 40
0
 40
1
 40
1
 40
1
 40
1
 10
216.741750
 20
237.750000
 30
0.0
 10
227.721750
 20
237.750000
 30
0.0
 10
237.231750
 20
231.339000
 30
0.0
 10
241.728000
 20
222.064500
 30
0.0
  0
SPLINE
  5
103
100
AcDbEntity
  8
0
 62
7
100
AcDbSpline
 70
8
 71
3
 72
8
 73
4
 74
0
 40
0
 40
0
 40
0
 40
0
 40
1
 40
1
 40
1
 40
1
 10
245.022750
 20
222.064500
 30
0.0
 10
240.324000
 20
233.040000
 30
0.0
 10
229.417500
 20
240.750000
 30
0.0
 10
216.741750
 20
240.750000
 30
0.0
  0
SPLINE
  5
104
100
AcDbEntity
  8
0
 62
7
100
AcDbSpline
 70
8
 71
3
 72
8
 73
4
 74
0
 40
0
 40
0
 40
0
 40
0
 40
1
 40
1
 40
1
 40
1
 10
216.741750
 20
240.750000
 30
0.0
 10
199.786500
 20
240.750000
 30
0.0
 10
185.991750
 20
226.955250
 30
0.0
 10
185.991750
 20
210.000000
 30
0.0
  0
SPLINE
  5
105
100
AcDbEntity
  8
0
 62
7
100
AcDbSpline
 70
8
 71
3
 72
8
 73
4
 74
0
 40
0
 40
0
 40
0
 40
0
 40
1
 40
1
 40
1
 40
1
 10
185.991750
 20
210.000000
 30
0.0
 10
185.991750
 20
193.044750
 30
0.0
 10
199.786500
 20
179.250000
 30
0.0
 10
216.741750
 20
179.250000
 30
0.0
  0
SPLINE
  5
106
100
AcDbEntity
  8
0
 62
7
100
AcDbSpline
 70
8
 71
3
 72
8
 73
4
 74
0
 40
0
 40
0
 40
0
 40
0
 40
1
 40
1
 40
1
 40
1
 10
216.741750
 20
179.250000
 30
0.0
 10
229.416750
 20
179.250000
 30
0.0
 10
240.323250
 20
186.960000
 30
0.0
 10
245.022750
 20
197.935500
 30
0.0
  0
LWPOLYLINE
  5
107
100
AcDbEntity
  8
0
 62
7
100
AcDbPolyline
 90
2
 70
0
 10
241.728000
 20
222.064500
 30
0.0
 10
245.022750
 20
222.064500
 30
0.0
  0
SPLINE
  5
108
100
AcDbEntity
  8
0
 62
7
100
AcDbSpline
 70
8
 71
3
 72
8
 73
4
 74
0
 40
0
 40
0
 40
0
 40
0
 40
1
 40
1
 40
1
 40
1
 10
241.728000
 20
197.935500
 30
0.0
 10
237.232500
 20
188.660250
 30
0.0
 10
227.721750
 20
182.250000
 30
0.0
 10
216.741750
 20
182.250000
 30
0.0
  0
SPLINE
  5
109
100
AcDbEntity
  8
0
 62
7
100
AcDbSpline
 70
8
 71
3
 72
8
 73
4
 74
0
 40
0
 40
0
 40
0
 40
0
 40
1
 40
1
 40
1
 40
1
 10
216.742500
 20
229.245000
 30
0.0
 10
206.055000
 20
229.245000
 30
0.0
 10
197.370000
 20
220.552500
 30
0.0
 10
197.370000
 20
209.872500
 30
0.0
  0
SPLINE
  5
10a
100
AcDbEntity
  8
0
 62
7
100
AcDbSpline
 70
8
 71
3
 72
8
 73
4
 74
0
 40
0
 40
0
 40
0
 40
0
 40
1
 40
1
 40
1
 40
1
 10
197.370000
 20
209.872500
 30
0.0
 10
197.370000
 20
205.102500
 30
0.0
 10
199.125000
 20
200.542500
 30
0.0
 10
202.260000
 20
197.017500
 30
0.0
  0
SPLINE
  5
10b
100
AcDbEntity
  8
0
 62
7
100
AcDbSpline
 70
8
 71
3
 72
8
 73
4
 74
0
 40
0
 40
0
 40
0
 40
0
 40
1
 40
1
 40
1
 40
1
 10
202.260000
 20
197.017500
 30
0.0
 10
202.822500
 20
196.386750
 30
0.0
 10
203.422500
 20
195.780000
 30
0.0
 10
204.075000
 20
195.217500
 30
0.0
  0
LWPOLYLINE
  5
10c
100
AcDbEntity
  8
0
 62
7
100
AcDbPolyline
 90
2
 70
0
 10
245.022750
 20
197.935500
 30
0.0
 10
241.728000
 20
197.935500
 30
0.0
  0
SPLINE
  5
10d
100
AcDbEntity
  8
0
 62
7
100
AcDbSpline
 70
8
 71
3
 72
8
 73
4
 74
0
 40
0
 40
0
 40
0
 40
0
 40
1
 40
1
 40
1
 40
1
 10
204.082500
 20
195.210000
 30
0.0
 10
204.765000
 20
194.617500
 30
0.0
 10
205.500000
 20
194.092500
 30
0.0
 10
206.250000
 20
193.612500
 30
0.0
  0
SPLINE
  5
10e
100
AcDbEntity
  8
0
 62
7
100
AcDbSpline
 70
8
 71
3
 72
8
 73
4
 74
0
 40
0
 40
0
 40
0
 40
0
 40
1
 40
1
 40
1
 40
1
 10
206.250000
 20
193.612500
 30
0.0
 10
209.362500
 20
191.601750
 30
0.0
 10
213.000000
 20
190.500000
 30
0.0
 10
216.742500
 20
190.500000
 30
0.0
  0
SPLINE
  5
10f
100
AcDbEntity
  8
0
 62
7
100
AcDbSpline
 70
8
 71
3
 72
8
 73
4
 74
0
 40
0
 40
0
 40
0
 40
0
 40
1
 40
1
 40
1
 40
1
 10
216.742500
 20
190.500000
 30
0.0
 10
220.305000
 20
190.500000
 30
0.0
 10
223.792500
 20
191.505000
 30
0.0
 10
226.815000
 20
193.342500
 30
0.0
  0
SPLINE
  5
110
100
AcDbEntity
  8
0
 62
7
100
AcDbSpline
 70
8
 71
3
 72
8
 73
4
 74
0
 40
0
 40
0
 40
0
 40
0
 40
1
 40
1
 40
1
 40
1
 10
226.815000
 20
193.342500
 30
0.0
 10
227.580000
 20
193.807500
 30
0.0
 10
228.322500
 20
194.317500
 30
0.0
 10
229.020000
 20
194.887500
 30
0.0
  0
SPLINE
  5
111
100
AcDbEntity
  8
0
 62
7
100
AcDbSpline
 70
8
 71
3
 72
8
 73
4
 74
0
 40
0
 40
0
 40
0
 40
0
 40
1
 40
1
 40
1
 40
1
 10
229.020000
 20
194.887500
 30
0.0
 10
229.687500
 20
195.435000
 30
0.0
 10
230.310000
 20
196.028250
 30
0.0
 10
230.895000
 20
196.650750
 30
0.0
  0
SPLINE
  5
112
100
AcDbEntity
  8
0
 62
7
100
AcDbSpline
 70
8
 71
3
 72
8
 73
4
 74
0
 40
0
 40
0
 40
0
 40
0
 40
1
 40
1
 40
1
 40
1
 10
230.895000
 20
196.650750
 30
0.0
 10
234.232500
 20
200.220750
 30
0.0
 10
236.115000
 20
204.908250
 30
0.0
 10
236.115000
 20
209.873250
 30
0.0
  0
SPLINE
  5
113
100
AcDbEntity
  8
0
 62
7
100
AcDbSpline
 70
8
 71
3
 72
8
 73
4
 74
0
 40
0
 40
0
 40
0
 40
0
 40
1
 40
1
 40
1
 40
1
 10
236.115000
 20
209.873250
 30
0.0
 10
236.115000
 20
220.552500
 30
0.0
 10
227.422500
 20
229.245000
 30
0.0
 10
216.742500
 20
229.245000
 30
0.0
  0
SPLINE
  5
114
100
AcDbEntity
  8
0
 62
7
100
AcDbSpline
 70
8
 71
3
 72
8
 73
4
 74
0
 40
0
 40
0
 40
0
 40
0
 40
1
 40
1
 40
1
 40
1
 10
216.742500
 20
195.750000
 30
0.0
 10
214.215000
 20
195.750000
 30
0.0
 10
211.755000
 20
196.425000
 30
0.0
 10
209.595000
 20
197.692500
 30
0.0
  0
LWPOLYLINE
  5
115
100
AcDbEntity
  8
0
 62
7
100
AcDbPolyline
 90
2
 70
0
 10
204.075000
 20
195.217500
 30
0.0
 10
204.082500
 20
195.210000
 30
0.0
  0
SPLINE
  5
116
100
AcDbEntity
  8
0
 62
7
100
AcDbSpline
 70
8
 71
3
 72
8
 73
4
 74
0
 40
0
 40
0
 40
0
 40
0
 40
1
 40
1
 40
1
 40
1
 10
223.567500
 20
197.505000
 30
0.0
 10
221.490000
 20
196.365000
 30
0.0
 10
219.135000
 20
195.750000
 30
0.0
 10
216.742500
 20
195.750000
 30
0.0
  0
SPLINE
  5
117
100
AcDbEntity
  8
0
 62
7
100
AcDbSpline
 70
8
 71
3
 72
8
 73
4
 74
0
 40
0
 40
0
 40
0
 40
0
 40
1
 40
1
 40
1
 40
1
 10
230.850000
 20
209.377500
 30
0.0
 10
230.745000
 20
206.227500
 30
0.0
 10
229.597500
 20
203.242500
 30
0.0
 10
227.617500
 20
200.857500
 30
0.0
  0
LWPOLYLINE
  5
118
100
AcDbEntity
  8
0
 62
7
100
AcDbPolyline
 90
3
 70
0
 10
209.595000
 20
197.692500
 30
0.0
 10
216.690000
 20
206.340000
 30
0.0
 10
223.567500
 20
197.505000
 30
0.0
  0
SPLINE
  5
119
100
AcDbEntity
  8
0
 62
7
100
AcDbSpline
 70
8
 71
3
 72
8
 73
4
 74
0
 40
0
 40
0
 40
0
 40
0
 40
1
 40
1
 40
1
 40
1
 10
205.642500
 20
201.143250
 30
0.0
 10
203.797500
 20
203.498250
 30
0.0
 10
202.725000
 20
206.393250
 30
0.0
 10
202.635000
 20
209.408250
 30
0.0
  0
SPLINE
  5
11a
100
AcDbEntity
  8
0
 62
7
100
AcDbSpline
 70
8
 71
3
 72
8
 73
4
 74
0
 40
0
 40
0
 40
0
 40
0
 40
1
 40
1
 40
1
 40
1
 10
202.635000
 20
209.408250
 30
0.0
 10
202.620000
 20
209.565750
 30
0.0
 10
202.620000
 20
209.715750
 30
0.0
 10
202.620000
 20
209.873250
 30
0.0
  0
SPLINE
  5
11b
100
AcDbEntity
  8
0
 62
7
100
AcDbSpline
 70
8
 71
3
 72
8
 73
4
 74
0
 40
0
 40
0
 40
0
 40
0
 40
1
 40
1
 40
1
 40
1
 10
202.620000
 20
209.873250
 30
0.0
 10
202.620000
 20
210.113250
 30
0.0
 10
202.627500
 20
210.360750
 30
0.0
 10
202.635000
 20
210.600750
 30
0.0
  0
SPLINE
  5
11c
100
AcDbEntity
  8
0
 62
7
100
AcDbSpline
 70
8
 71
3
 72
8
 73
4
 74
0
 40
0
 40
0
 40
0
 40
0
 40
1
 40
1
 40
1
 40
1
 10
202.635000
 20
210.600750
 30
0.0
 10
203.017500
 20
218.048250
 30
0.0
 10
209.190000
 20
223.995750
 30
0.0
 10
216.742500
 20
223.995750
 30
0.0
  0
SPLINE
  5
11d
100
AcDbEntity
  8
0
 62
7
100
AcDbSpline
 70
8
 71
3
 72
8
 73
4
 74
0
 40
0
 40
0
 40
0
 40
0
 40
1
 40
1
 40
1
 40
1
 10
216.742500
 20
223.995750
 30
0.0
 10
224.287500
 20
223.995750
 30
0.0
 10
230.467500
 20
218.048250
 30
0.0
 10
230.850000
 20
210.600750
 30
0.0
  0
SPLINE
  5
11e
100
AcDbEntity
  8
0
 62
7
100
AcDbSpline
 70
8
 71
3
 72
8
 73
4
 74
0
 40
0
 40
0
 40
0
 40
0
 40
1
 40
1
 40
1
 40
1
 10
230.850000
 20
210.600750
 30
0.0
 10
230.857500
 20
210.360750
 30
0.0
 10
230.865000
 20
210.113250
 30
0.0
 10
230.865000
 20
209.873250
 30
0.0
  0
SPLINE
  5
11f
100
AcDbEntity
  8
0
 62
7
100
AcDbSpline
 70
8
 71
3
 72
8
 73
4
 74
0
 40
0
 40
0
 40
0
 40
0
 40
1
 40
1
 40
1
 40
1
 10
230.865000
 20
209.873250
 30
0.0
 10
230.865000
 20
209.707500
 30
0.0
 10
230.865000
 20
209.542500
 30
0.0
 10
230.850000
 20
209.377500
 30
0.0
  0
SPLINE
  5
120
100
AcDbEntity
  8
0
 62
7
100
AcDbSpline
 70
8
 71
3
 72
8
 73
4
 74
0
 40
0
 40
0
 40
0
 40
0
 40
1
 40
1
 40
1
 40
1
 10
287.043750
 20
219.410250
 30
0.0
 10
288.402000
 20
218.834250
 30
0.0
 10
289.559250
 20
218.058750
 30
0.0
 10
290.517750
 20
217.083000
 30
0.0
  0
LWPOLYLINE
  5
121
100
AcDbEntity
  8
0
 62
7
100
AcDbPolyline
 90
3
 70
0
 10
227.617500
 20
200.857500
 30
0.0
 10
216.795000
 20
214.748250
 30
0.0
 10
205.642500
 20
201.143250
 30
0.0
  0
SPLINE
  5
122
100
AcDbEntity
  8
0
 62
7
100
AcDbSpline
 70
8
 71
3
 72
8
 73
4
 74
0
 40
0
 40
0
 40
0
 40
0
 40
1
 40
1
 40
1
 40
1
 10
287.736000
 20
213.787500
 30
0.0
 10
287.121000
 20
214.543500
 30
0.0
 10
286.386750
 20
215.143500
 30
0.0
 10
285.534000
 20
215.586750
 30
0.0
  0
SPLINE
  5
123
100
AcDbEntity
  8
0
 62
7
100
AcDbSpline
 70
8
 71
3
 72
8
 73
4
 74
0
 40
0
 40
0
 40
0
 40
0
 40
1
 40
1
 40
1
 40
1
 10
285.534000
 20
215.586750
 30
0.0
 10
284.682000
 20
216.030750
 30
0.0
 10
283.829250
 20
216.252750
 30
0.0
 10
282.976500
 20
216.252750
 30
0.0
  0
SPLINE
  5
124
100
AcDbEntity
  8
0
 62
7
100
AcDbSpline
 70
8
 71
3
 72
8
 73
4
 74
0
 40
0
 40
0
 40
0
 40
0
 40
1
 40
1
 40
1
 40
1
 10
282.976500
 20
216.252750
 30
0.0
 10
281.983500
 20
216.252750
 30
0.0
 10
281.087250
 20
216.013500
 30
0.0
 10
280.287000
 20
215.534250
 30
0.0
  0
SPLINE
  5
125
100
AcDbEntity
  8
0
 62
7
100
AcDbSpline
 70
8
 71
3
 72
8
 73
4
 74
0
 40
0
 40
0
 40
0
 40
0
 40
1
 40
1
 40
1
 40
1
 10
280.287000
 20
215.534250
 30
0.0
 10
279.487500
 20
215.055000
 30
0.0
 10
278.859000
 20
214.398000
 30
0.0
 10
278.402250
 20
213.563250
 30
0.0
  0
SPLINE
  5
126
100
AcDbEntity
  8
0
 62
7
100
AcDbSpline
 70
8
 71
3
 72
8
 73
4
 74
0
 40
0
 40
0
 40
0
 40
0
 40
1
 40
1
 40
1
 40
1
 10
278.402250
 20
213.563250
 30
0.0
 10
277.944750
 20
212.728500
 30
0.0
 10
277.716000
 20
211.797000
 30
0.0
 10
277.716000
 20
210.768750
 30
0.0
  0
SPLINE
  5
127
100
AcDbEntity
  8
0
 62
7
100
AcDbSpline
 70
8
 71
3
 72
8
 73
4
 74
0
 40
0
 40
0
 40
0
 40
0
 40
1
 40
1
 40
1
 40
1
 10
277.716000
 20
210.768750
 30
0.0
 10
277.716000
 20
209.722500
 30
0.0
 10
277.944750
 20
208.778250
 30
0.0
 10
278.402250
 20
207.934500
 30
0.0
  0
SPLINE
  5
128
100
AcDbEntity
  8
0
 62
7
100
AcDbSpline
 70
8
 71
3
 72
8
 73
4
 74
0
 40
0
 40
0
 40
0
 40
0
 40
1
 40
1
 40
1
 40
1
 10
278.402250
 20
207.934500
 30
0.0
 10
278.859000
 20
207.090750
 30
0.0
 10
279.489750
 20
206.424750
 30
0.0
 10
280.293750
 20
205.937250
 30
0.0
  0
SPLINE
  5
129
100
AcDbEntity
  8
0
 62
7
100
AcDbSpline
 70
8
 71
3
 72
8
 73
4
 74
0
 40
0
 40
0
 40
0
 40
0
 40
1
 40
1
 40
1
 40
1
 10
280.293750
 20
205.937250
 30
0.0
 10
281.097750
 20
205.449750
 30
0.0
 10
281.992500
 20
205.205250
 30
0.0
 10
282.976500
 20
205.205250
 30
0.0
  0
SPLINE
  5
12a
100
AcDbEntity
  8
0
 62
7
100
AcDbSpline
 70
8
 71
3
 72
8
 73
4
 74
0
 40
0
 40
0
 40
0
 40
0
 40
1
 40
1
 40
1
 40
1
 10
282.976500
 20
205.205250
 30
0.0
 10
283.767750
 20
205.205250
 30
0.0
 10
284.591250
 20
205.403250
 30
0.0
 10
285.448500
 20
205.798500
 30
0.0
  0
SPLINE
  5
12b
100
AcDbEntity
  8
0
 62
7
100
AcDbSpline
 70
8
 71
3
 72
8
 73
4
 74
0
 40
0
 40
0
 40
0
 40
0
 40
1
 40
1
 40
1
 40
1
 10
285.448500
 20
205.798500
 30
0.0
 10
286.305750
 20
206.193750
 30
0.0
 10
287.067750
 20
206.734500
 30
0.0
 10
287.736000
 20
207.420000
 30
0.0
  0
LWPOLYLINE
  5
12c
100
AcDbEntity
  8
0
 62
7
100
AcDbPolyline
 90
2
 70
0
 10
290.517750
 20
217.083000
 30
0.0
 10
287.736000
 20
213.787500
 30
0.0
  0
SPLINE
  5
12d
100
AcDbEntity
  8
0
 62
7
100
AcDbSpline
 70
8
 71
3
 72
8
 73
4
 74
0
 40
0
 40
0
 40
0
 40
0
 40
1
 40
1
 40
1
 40
1
 10
290.544000
 20
204.453750
 30
0.0
 10
289.515750
 20
203.407500
 30
0.0
 10
288.305250
 20
202.570500
 30
0.0
 10
286.911750
 20
201.942000
 30
0.0
  0
SPLINE
  5
12e
100
AcDbEntity
  8
0
 62
7
100
AcDbSpline
 70
8
 71
3
 72
8
 73
4
 74
0
 40
0
 40
0
 40
0
 40
0
 40
1
 40
1
 40
1
 40
1
 10
286.911750
 20
201.942000
 30
0.0
 10
285.519000
 20
201.313500
 30
0.0
 10
284.127750
 20
200.999250
 30
0.0
 10
282.739500
 20
200.999250
 30
0.0
  0
SPLINE
  5
12f
100
AcDbEntity
  8
0
 62
7
100
AcDbSpline
 70
8
 71
3
 72
8
 73
4
 74
0
 40
0
 40
0
 40
0
 40
0
 40
1
 40
1
 40
1
 40
1
 10
282.739500
 20
200.999250
 30
0.0
 10
280.867500
 20
200.999250
 30
0.0
 10
279.175500
 20
201.421500
 30
0.0
 10
277.663500
 20
202.265250
 30
0.0
  0
SPLINE
  5
130
100
AcDbEntity
  8
0
 62
7
100
AcDbSpline
 70
8
 71
3
 72
8
 73
4
 74
0
 40
0
 40
0
 40
0
 40
0
 40
1
 40
1
 40
1
 40
1
 10
277.663500
 20
202.265250
 30
0.0
 10
276.152250
 20
203.109000
 30
0.0
 10
274.963500
 20
204.273750
 30
0.0
 10
274.097250
 20
205.758750
 30
0.0
  0
SPLINE
  5
131
100
AcDbEntity
  8
0
 62
7
100
AcDbSpline
 70
8
 71
3
 72
8
 73
4
 74
0
 40
0
 40
0
 40
0
 40
0
 40
1
 40
1
 40
1
 40
1
 10
274.097250
 20
205.758750
 30
0.0
 10
273.231750
 20
207.243750
 30
0.0
 10
272.799000
 20
208.896750
 30
0.0
 10
272.799000
 20
210.715500
 30
0.0
  0
SPLINE
  5
132
100
AcDbEntity
  8
0
 62
7
100
AcDbSpline
 70
8
 71
3
 72
8
 73
4
 74
0
 40
0
 40
0
 40
0
 40
0
 40
1
 40
1
 40
1
 40
1
 10
272.799000
 20
210.715500
 30
0.0
 10
272.799000
 20
212.517750
 30
0.0
 10
273.240750
 20
214.141500
 30
0.0
 10
274.123500
 20
215.586750
 30
0.0
  0
SPLINE
  5
133
100
AcDbEntity
  8
0
 62
7
100
AcDbSpline
 70
8
 71
3
 72
8
 73
4
 74
0
 40
0
 40
0
 40
0
 40
0
 40
1
 40
1
 40
1
 40
1
 10
274.123500
 20
215.586750
 30
0.0
 10
275.007000
 20
217.032750
 30
0.0
 10
276.217500
 20
218.175750
 30
0.0
 10
277.755750
 20
219.015000
 30
0.0
  0
SPLINE
  5
134
100
AcDbEntity
  8
0
 62
7
100
AcDbSpline
 70
8
 71
3
 72
8
 73
4
 74
0
 40
0
 40
0
 40
0
 40
0
 40
1
 40
1
 40
1
 40
1
 10
277.755750
 20
219.015000
 30
0.0
 10
279.294000
 20
219.854250
 30
0.0
 10
281.007750
 20
220.273500
 30
0.0
 10
282.897750
 20
220.273500
 30
0.0
  0
SPLINE
  5
135
100
AcDbEntity
  8
0
 62
7
100
AcDbSpline
 70
8
 71
3
 72
8
 73
4
 74
0
 40
0
 40
0
 40
0
 40
0
 40
1
 40
1
 40
1
 40
1
 10
282.897750
 20
220.273500
 30
0.0
 10
284.304000
 20
220.273500
 30
0.0
 10
285.685500
 20
219.986250
 30
0.0
 10
287.043750
 20
219.410250
 30
0.0
  0
SPLINE
  5
136
100
AcDbEntity
  8
0
 62
7
100
AcDbSpline
 70
8
 71
3
 72
8
 73
4
 74
0
 40
0
 40
0
 40
0
 40
0
 40
1
 40
1
 40
1
 40
1
 10
320.385000
 20
207.232500
 30
0.0
 10
321.502500
 20
207.795000
 30
0.0
 10
322.357500
 20
208.590750
 30
0.0
 10
322.942500
 20
209.618250
 30
0.0
  0
SPLINE
  5
137
100
AcDbEntity
  8
0
 62
7
100
AcDbSpline
 70
8
 71
3
 72
8
 73
4
 74
0
 40
0
 40
0
 40
0
 40
0
 40
1
 40
1
 40
1
 40
1
 10
322.942500
 20
209.618250
 30
0.0
 10
323.520000
 20
210.638250
 30
0.0
 10
323.812500
 20
211.875750
 30
0.0
 10
323.812500
 20
213.315750
 30
0.0
  0
SPLINE
  5
138
100
AcDbEntity
  8
0
 62
7
100
AcDbSpline
 70
8
 71
3
 72
8
 73
4
 74
0
 40
0
 40
0
 40
0
 40
0
 40
1
 40
1
 40
1
 40
1
 10
323.812500
 20
213.315750
 30
0.0
 10
323.812500
 20
215.423250
 30
0.0
 10
323.130000
 20
217.050750
 30
0.0
 10
321.765000
 20
218.190750
 30
0.0
  0
SPLINE
  5
139
100
AcDbEntity
  8
0
 62
7
100
AcDbSpline
 70
8
 71
3
 72
8
 73
4
 74
0
 40
0
 40
0
 40
0
 40
0
 40
1
 40
1
 40
1
 40
1
 10
321.765000
 20
218.190750
 30
0.0
 10
320.400000
 20
219.330750
 30
0.0
 10
318.465000
 20
219.908250
 30
0.0
 10
315.960000
 20
219.908250
 30
0.0
  0
LWPOLYLINE
  5
13a
100
AcDbEntity
  8
0
 62
7
100
AcDbPolyline
 90
2
 70
0
 10
287.736000
 20
207.420000
 30
0.0
 10
290.544000
 20
204.453750
 30
0.0
  0
SPLINE
  5
13b
100
AcDbEntity
  8
0
 62
7
100
AcDbSpline
 70
8
 71
3
 72
8
 73
4
 74
0
 40
0
 40
0
 40
0
 40
0
 40
1
 40
1
 40
1
 40
1
 10
318.390000
 20
210.877500
 30
0.0
 10
317.812500
 20
210.360000
 30
0.0
 10
317.002500
 20
210.097500
 30
0.0
 10
315.960000
 20
210.097500
 30
0.0
  0
LWPOLYLINE
  5
13c
100
AcDbEntity
  8
0
 62
7
100
AcDbPolyline
 90
10
 70
0
 10
315.960000
 20
219.908250
 30
0.0
 10
307.507500
 20
219.908250
 30
0.0
 10
307.507500
 20
201.000000
 30
0.0
 10
312.322500
 20
201.000000
 30
0.0
 10
312.322500
 20
206.310000
 30
0.0
 10
316.102500
 20
206.310000
 30
0.0
 10
318.915000
 20
201.000000
 30
0.0
 10
324.360000
 20
201.000000
 30
0.0
 10
320.385000
 20
207.232500
 30
0.0
 10
320.385000
 20
207.232500
 30
0.0
  0
SPLINE
  5
13d
100
AcDbEntity
  8
0
 62
7
100
AcDbSpline
 70
8
 71
3
 72
8
 73
4
 74
0
 40
0
 40
0
 40
0
 40
0
 40
1
 40
1
 40
1
 40
1
 10
315.960000
 20
216.120000
 30
0.0
 10
317.002500
 20
216.120000
 30
0.0
 10
317.812500
 20
215.872500
 30
0.0
 10
318.390000
 20
215.370000
 30
0.0
  0
SPLINE
  5
13e
100
AcDbEntity
  8
0
 62
7
100
AcDbSpline
 70
8
 71
3
 72
8
 73
4
 74
0
 40
0
 40
0
 40
0
 40
0
 40
1
 40
1
 40
1
 40
1
 10
318.390000
 20
215.370000
 30
0.0
 10
318.967500
 20
214.867500
 30
0.0
 10
319.252500
 20
214.132500
 30
0.0
 10
319.252500
 20
213.157500
 30
0.0
  0
SPLINE
  5
13f
100
AcDbEntity
  8
0
 62
7
100
AcDbSpline
 70
8
 71
3
 72
8
 73
4
 74
0
 40
0
 40
0
 40
0
 40
0
 40
1
 40
1
 40
1
 40
1
 10
319.252500
 20
213.157500
 30
0.0
 10
319.252500
 20
212.160000
 30
0.0
 10
318.967500
 20
211.402500
 30
0.0
 10
318.390000
 20
210.877500
 30
0.0
  0
LWPOLYLINE
  5
140
100
AcDbEntity
  8
0
 62
7
100
AcDbPolyline
 90
4
 70
0
 10
315.960000
 20
210.097500
 30
0.0
 10
312.322500
 20
210.097500
 30
0.0
 10
312.322500
 20
216.120000
 30
0.0
 10
315.960000
 20
216.120000
 30
0.0
  0
LWPOLYLINE
  5
141
100
AcDbEntity
  8
0
 62
7
100
AcDbPolyline
 90
9
 70
1
 10
353.542500
 20
219.907500
 30
0.0
 10
348.600000
 20
219.907500
 30
0.0
 10
340.455000
 20
201.000000
 30
0.0
 10
345.397500
 20
201.000000
 30
0.0
 10
346.770000
 20
204.480000
 30
0.0
 10
355.035000
 20
204.480000
 30
0.0
 10
356.377500
 20
201.000000
 30
0.0
 10
361.507500
 20
201.000000
 30
0.0
 10
353.542500
 20
219.907500
 30
0.0
  0
LWPOLYLINE
  5
142
100
AcDbEntity
  8
0
 62
7
100
AcDbPolyline
 90
4
 70
1
 10
348.165000
 20
208.132500
 30
0.0
 10
350.925000
 20
215.122500
 30
0.0
 10
353.625000
 20
208.132500
 30
0.0
 10
348.165000
 20
208.132500
 30
0.0
  0
LWPOLYLINE
  5
143
100
AcDbEntity
  8
0
 62
7
100
AcDbPolyline
 90
9
 70
1
 10
451.042500
 20
219.907500
 30
0.0
 10
446.100000
 20
219.907500
 30
0.0
 10
437.954250
 20
201.000000
 30
0.0
 10
442.897500
 20
201.000000
 30
0.0
 10
444.270000
 20
204.480000
 30
0.0
 10
452.535000
 20
204.480000
 30
0.0
 10
453.877500
 20
201.000000
 30
0.0
 10
459.007500
 20
201.000000
 30
0.0
 10
451.042500
 20
219.907500
 30
0.0
  0
LWPOLYLINE
  5
144
100
AcDbEntity
  8
0
 62
7
100
AcDbPolyline
 90
4
 70
1
 10
445.665000
 20
208.132500
 30
0.0
 10
448.425750
 20
215.122500
 30
0.0
 10
451.125750
 20
208.132500
 30
0.0
 10
445.665000
 20
208.132500
 30
0.0
  0
LWPOLYLINE
  5
145
100
AcDbEntity
  8
0
 62
7
100
AcDbPolyline
 90
9
 70
1
 10
526.042500
 20
219.907500
 30
0.0
 10
521.100000
 20
219.907500
 30
0.0
 10
512.954250
 20
201.000000
 30
0.0
 10
517.897500
 20
201.000000
 30
0.0
 10
519.270000
 20
204.480000
 30
0.0
 10
527.535000
 20
204.480000
 30
0.0
 10
528.877500
 20
201.000000
 30
0.0
 10
534.007500
 20
201.000000
 30
0.0
 10
526.042500
 20
219.907500
 30
0.0
  0
LWPOLYLINE
  5
146
100
AcDbEntity
  8
0
 62
7
100
AcDbPolyline
 90
4
 70
1
 10
520.665000
 20
208.132500
 30
0.0
 10
523.425750
 20
215.122500
 30
0.0
 10
526.125750
 20
208.132500
 30
0.0
 10
520.665000
 20
208.132500
 30
0.0
  0
LWPOLYLINE
  5
147
100
AcDbEntity
  8
0
 62
7
100
AcDbPolyline
 90
4
 70
1
 10
413.250000
 20
219.750000
 30
0.0
 10
417.750000
 20
219.750000
 30
0.0
 10
417.750000
 20
201.000000
 30
0.0
 10
413.250000
 20
201.000000
 30
0.0
  0
LWPOLYLINE
  5
148
100
AcDbEntity
  8
0
 62
7
100
AcDbPolyline
 90
4
 70
1
 10
407.250000
 20
220.500000
 30
0.0
 10
423.750000
 20
220.500000
 30
0.0
 10
423.750000
 20
216.000000
 30
0.0
 10
407.250000
 20
216.000000
 30
0.0
  0
LWPOLYLINE
  5
149
100
AcDbEntity
  8
0
 62
7
100
AcDbPolyline
 90
4
 70
1
 10
0.000000
 20
420.000000
 30
0.0
 10
720.000000
 20
420.000000
 30
0.0
 10
720.000000
 20
0.000000
 30
0.0
 10
0.000000
 20
0.000000
 30
0.0
  0
ENDSEC
  0
SECTION
  2
OBJECTS
  0
DICTIONARY
  5
C
330
0
100
AcDbDictionary
  3
ACAD_GROUP
350
D
  3
ACAD_MLINESTYLE
350
17
  0
DICTIONARY
  5
D
330
C
100
AcDbDictionary
  0
DICTIONARY
  5
1A
330
C
100
AcDbDictionary
  0
DICTIONARY
  5
17
330
C
100
AcDbDictionary
  3
STANDARD
350
18
  0
DICTIONARY
  5
19
330
C
100
AcDbDictionary
  0
ENDSEC
  0
EOF
